<svg width="22" height="33" viewBox="0 0 22 33" fill="none" xmlns="http://www.w3.org/2000/svg">
<path fill-rule="evenodd" clip-rule="evenodd" d="M19.3978 31.6248C18.9372 29.9806 17.5635 28.0496 16.4935 25.9642C17.4107 27.7517 18.3278 29.5393 19.3978 31.6248ZM21.9819 31.4368C20.4554 29.2079 19.5362 26.67 18.617 24.132C17.8548 23.3928 17.2475 23.7019 16.6402 24.0109C15.5784 24.927 14.5146 25.0927 15.7334 25.9753C17.2599 28.2042 18.3299 30.2897 19.0962 32.5297C19.3999 32.3751 20.0072 32.0661 20.3108 31.9115C20.9181 31.6025 21.0689 31.15 21.9819 31.4368ZM15.4235 23.8787C14.9629 22.2345 13.5892 20.3036 12.5192 18.2181C13.4364 20.0056 14.3535 21.7932 15.4235 23.8787ZM11.2964 15.8347C10.9886 14.4884 9.46208 12.2595 8.54493 10.472C9.46208 12.2595 10.2264 13.7492 11.4492 16.1326C11.4492 16.1326 11.4492 16.1326 11.2964 15.8347ZM13.8805 15.6467C12.5068 13.7158 11.5876 11.1778 10.5155 8.34194C9.90618 7.90062 9.29888 8.20968 8.69159 8.51875C7.62985 9.43481 6.56605 9.60048 7.78478 10.4831C9.15843 12.4141 10.3813 14.7975 11.1476 17.0375C11.4513 16.883 12.0586 16.5739 12.3622 16.4194C12.8167 15.8124 13.1203 15.6578 13.8805 15.6467ZM7.32207 8.08857C7.01429 6.74233 5.48778 4.51346 4.57064 2.7259C5.48778 4.51346 6.25207 6.00309 7.47493 8.3865L7.32207 8.08857ZM9.90618 7.90062C8.53253 5.96967 7.61332 3.43172 6.54125 0.595853C5.93189 0.154533 5.32459 0.463599 4.71729 0.772666C3.65556 1.68872 2.4389 1.55647 3.81048 2.73704C5.18413 4.66799 6.40699 7.0514 7.17335 9.29142C7.477 9.13688 8.08429 8.82782 8.23508 8.37536C8.84238 8.06629 9.14603 7.91176 9.90618 7.90062ZM9.32162 16.4639C8.10496 16.3317 7.19195 16.0449 5.97529 15.9126C7.19195 16.0449 7.9521 16.0338 9.32162 16.4639C7.4956 15.8904 6.12608 15.4602 4.45292 15.1845C5.82243 15.6147 7.03909 15.747 8.86511 16.3205C6.88623 15.449 5.21307 15.1734 3.6907 14.4453C5.06021 14.8755 6.42973 15.3056 8.40861 16.1771C6.73338 15.1511 4.90736 14.5775 3.08133 14.004C4.90736 14.5775 6.88623 15.449 9.32162 16.4639C9.77812 16.6073 9.77812 16.6073 9.32162 16.4639ZM8.71432 16.773C8.71432 16.773 8.41067 16.9275 8.25782 16.6296C5.97736 16.663 4.00054 16.5419 2.17659 16.7187C3.84975 16.9944 5.67371 16.8176 7.49766 16.6407C5.67371 16.8176 4.1534 16.8398 2.78595 17.16C4.30626 17.1378 6.13021 16.9609 7.95417 16.7841C6.43386 16.8064 5.06641 17.1266 3.69896 17.4468C5.52292 17.27 6.89037 16.9498 8.41067 16.9275C7.34687 17.0932 6.28307 17.2589 5.21927 17.4245C6.28307 17.2589 7.34687 17.0932 8.41067 16.9275C8.71432 16.773 8.71432 16.773 8.71432 16.773ZM9.63147 18.5606C9.02417 18.8696 8.56973 19.4766 7.65879 19.9402C8.26608 19.6311 8.72052 19.0242 9.63147 18.5606C8.72052 19.0242 7.65879 19.9402 6.74784 20.4038C7.65879 19.9402 8.41688 19.1787 9.32782 18.7151C8.11323 19.3332 6.89864 19.9514 5.8369 20.8674C6.59499 20.1059 7.80958 19.4878 9.02417 18.8696C7.80958 19.4878 6.59499 20.1059 5.3804 20.724C6.59499 20.1059 7.96037 19.0353 9.47861 18.2626C9.78226 18.1081 9.93512 18.406 9.63147 18.5606ZM9.78432 18.8585C9.48068 19.013 9.48068 19.013 9.48068 19.013C8.26815 20.3815 7.35927 21.5955 6.75405 22.655C7.35927 21.5955 8.26815 20.3815 9.02624 19.62C8.42101 20.6795 7.66292 21.441 7.05769 22.5004C7.66292 21.441 8.5718 20.227 9.17703 19.1675C8.5718 20.227 8.27022 21.1319 7.81578 21.7389C8.27022 21.1319 8.87545 20.0725 9.48068 19.013C9.1791 19.9179 8.72466 20.5249 8.57387 20.9774C9.02831 20.3704 9.02624 19.62 9.48068 19.013L9.78432 18.8585ZM10.5424 18.097C10.8461 17.9424 10.8461 17.9424 11.1497 17.7879C11.3026 18.0858 11.3026 18.0858 11.7591 18.2292C13.2856 20.4581 14.3556 22.5436 15.1219 24.7836C15.4256 24.6291 16.0329 24.32 16.3365 24.1655C16.791 23.5585 17.0946 23.4039 17.8548 23.3928C16.4811 21.4618 15.5619 18.9239 14.4898 16.088C13.8805 15.6467 13.2732 15.9558 12.6659 16.2648C11.9078 17.0264 11.1476 17.0375 10.9969 17.49C10.844 17.192 10.3875 17.0486 10.2346 16.7507C10.0818 16.4528 9.62527 16.3094 8.86305 15.5702C6.88417 14.6987 3.68863 13.6949 2.01547 13.4193C2.47404 14.313 4.90942 15.3279 6.8883 16.1994C4.91149 16.0783 2.32738 16.2663 0.809141 17.0389C2.33151 17.767 7.95624 17.5345 9.62733 17.0598C9.62733 17.0598 9.93098 16.9052 10.0838 17.2032C10.5403 17.3466 10.9969 17.49 11.1497 17.7879C10.8461 17.9424 10.5424 18.097 10.0859 17.9536C10.0859 17.9536 9.78226 18.1081 9.17496 18.4172C7.50386 18.8919 5.53119 20.2716 4.46945 21.1876C5.38246 21.4744 7.20435 20.5472 8.56973 19.4766C7.66086 20.6906 6.60119 22.357 5.99596 23.4165C7.36341 23.0963 9.78639 19.6089 9.93512 18.406C10.2388 18.2515 10.2388 18.2515 10.5424 18.097Z" fill="#55B807"/>
</svg>
