<svg xmlns="http://www.w3.org/2000/svg" width="12" height="21" fill="none" xmlns:v="https://vecta.io/nano"><mask id="A" fill="#fff"><path fill-rule="evenodd" d="M10.38 19.931c-.25-1.003-.996-2.181-1.577-3.454l1.577 3.454zm1.403-.115c-.829-1.36-1.328-2.908-1.827-4.457-.414-.451-.744-.262-1.074-.074-.577.559-1.154.66-.492 1.199.829 1.36 1.41 2.632 1.826 3.999l.66-.377c.33-.189.412-.465.907-.29zm-3.562-4.612c-.25-1.003-.996-2.181-1.577-3.454l1.577 3.454zm-2.241-4.908c-.167-.821-.996-2.181-1.494-3.272l1.577 3.454-.083-.182zm1.403-.115c-.746-1.178-1.245-2.727-1.827-4.457-.331-.269-.661-.081-.991.108-.577.559-1.154.66-.492 1.199A17.1 17.1 0 0 1 5.9 11.031l.66-.377c.247-.37.412-.465.825-.471zM3.822 5.571c-.167-.821-.996-2.181-1.494-3.272l1.577 3.454-.083-.182zm1.403-.115C4.48 4.279 3.981 2.73 3.398 1c-.331-.269-.661-.081-.991.108-.577.559-1.237.478-.492 1.199a17.1 17.1 0 0 1 1.826 3.999c.165-.094.495-.283.577-.559.33-.189.495-.283.908-.29zm-.317 5.225c-.661-.081-1.157-.256-1.817-.336.661.081 1.074.074 1.817.336-.992-.35-1.735-.613-2.644-.781.744.262 1.404.343 2.396.693-1.075-.532-1.983-.7-2.81-1.144.744.262 1.487.525 2.562 1.057-.91-.626-1.901-.976-2.893-1.326.992.35 2.066.882 3.389 1.501.248.088.248.088 0 0zm-.33.188s-.165.094-.248-.087c-1.238.02-2.312-.054-3.302.054.909.168 1.899.06 2.89-.048-.991.108-1.816.122-2.559.317.826-.014 1.816-.121 2.807-.229-.826.014-1.568.209-2.311.404l2.559-.317-1.733.303 1.733-.303.165-.094zm.498 1.091c-.33.189-.577.559-1.071.842.33-.189.577-.559 1.071-.842-.495.283-1.071.842-1.566 1.125.495-.283.906-.748 1.401-1.03-.66.377-1.319.754-1.896 1.313.412-.465 1.071-.842 1.731-1.219l-1.979 1.131c.66-.377 1.401-1.03 2.226-1.502.165-.094.248.088.083.182zm.083.182l-.165.094c-.658.835-1.152 1.576-1.481 2.222.329-.646.822-1.387 1.234-1.852-.329.646-.74 1.111-1.069 1.757l1.151-2.033c-.329.646-.492 1.199-.739 1.569.247-.37.575-1.017.904-1.663-.164.552-.411.923-.492 1.199.247-.37.246-.828.492-1.199l.165-.094zm.412-.465l.33-.188c.083.182.083.182.331.269.829 1.36 1.41 2.632 1.826 3.999l.66-.377c.247-.37.412-.465.825-.471-.746-1.178-1.245-2.727-1.827-4.457-.331-.269-.661-.081-.991.108-.412.465-.825.471-.906.747-.083-.182-.331-.269-.414-.451s-.331-.269-.745-.72C3.585 9.604 1.849 8.992.941 8.824c.249.545 1.572 1.165 2.646 1.696-1.074-.074-2.477.041-3.301.512.827.444 3.881.302 4.789.013 0 0 .165-.094.248.088.248.088.496.175.579.357-.165.094-.33.188-.578.101l-.495.283c-.908.29-1.979 1.131-2.555 1.69.496.175 1.485-.391 2.227-1.044a27.05 27.05 0 0 0-1.398 2.404c.743-.195 2.058-2.323 2.139-3.057l.33-.189z"/></mask><g fill="#fff"><path fill-rule="evenodd" d="M10.38 19.931c-.25-1.003-.996-2.181-1.577-3.454l1.577 3.454zm1.403-.115c-.829-1.36-1.328-2.908-1.827-4.457-.414-.451-.744-.262-1.074-.074-.577.559-1.154.66-.492 1.199.829 1.36 1.41 2.632 1.826 3.999l.66-.377c.33-.189.412-.465.907-.29zm-3.562-4.612c-.25-1.003-.996-2.181-1.577-3.454l1.577 3.454zm-2.241-4.908c-.167-.821-.996-2.181-1.494-3.272l1.577 3.454-.083-.182zm1.403-.115c-.746-1.178-1.245-2.727-1.827-4.457-.331-.269-.661-.081-.991.108-.577.559-1.154.66-.492 1.199A17.1 17.1 0 0 1 5.9 11.031l.66-.377c.247-.37.412-.465.825-.471zM3.822 5.571c-.167-.821-.996-2.181-1.494-3.272l1.577 3.454-.083-.182zm1.403-.115C4.48 4.279 3.981 2.73 3.398 1c-.331-.269-.661-.081-.991.108-.577.559-1.237.478-.492 1.199a17.1 17.1 0 0 1 1.826 3.999c.165-.094.495-.283.577-.559.33-.189.495-.283.908-.29zm-.317 5.225c-.661-.081-1.157-.256-1.817-.336.661.081 1.074.074 1.817.336-.992-.35-1.735-.613-2.644-.781.744.262 1.404.343 2.396.693-1.075-.532-1.983-.7-2.81-1.144.744.262 1.487.525 2.562 1.057-.91-.626-1.901-.976-2.893-1.326.992.35 2.066.882 3.389 1.501.248.088.248.088 0 0zm-.33.188s-.165.094-.248-.087c-1.238.02-2.312-.054-3.302.054.909.168 1.899.06 2.89-.048-.991.108-1.816.122-2.559.317.826-.014 1.816-.121 2.807-.229-.826.014-1.568.209-2.311.404l2.559-.317-1.733.303 1.733-.303.165-.094zm.498 1.091c-.33.189-.577.559-1.071.842.33-.189.577-.559 1.071-.842-.495.283-1.071.842-1.566 1.125.495-.283.906-.748 1.401-1.03-.66.377-1.319.754-1.896 1.313.412-.465 1.071-.842 1.731-1.219l-1.979 1.131c.66-.377 1.401-1.03 2.226-1.502.165-.094.248.088.083.182zm.083.182l-.165.094c-.658.835-1.152 1.576-1.481 2.222.329-.646.822-1.387 1.234-1.852-.329.646-.74 1.111-1.069 1.757l1.151-2.033c-.329.646-.492 1.199-.739 1.569.247-.37.575-1.017.904-1.663-.164.552-.411.923-.492 1.199.247-.37.246-.828.492-1.199l.165-.094zm.412-.465l.33-.188c.083.182.083.182.331.269.829 1.36 1.41 2.632 1.826 3.999l.66-.377c.247-.37.412-.465.825-.471-.746-1.178-1.245-2.727-1.827-4.457-.331-.269-.661-.081-.991.108-.412.465-.825.471-.906.747-.083-.182-.331-.269-.414-.451s-.331-.269-.745-.72C3.585 9.604 1.849 8.992.941 8.824c.249.545 1.572 1.165 2.646 1.696-1.074-.074-2.477.041-3.301.512.827.444 3.881.302 4.789.013 0 0 .165-.094.248.088.248.088.496.175.579.357-.165.094-.33.188-.578.101l-.495.283c-.908.29-1.979 1.131-2.555 1.69.496.175 1.485-.391 2.227-1.044a27.05 27.05 0 0 0-1.398 2.404c.743-.195 2.058-2.323 2.139-3.057l.33-.189z"/><path d="M10.38 19.931l1.106-.378-2.137.968 1.032-.59zm1.403-.115l.966-.713 1.841 3.02-3.215-1.134.408-1.172zM9.956 15.36l.834-.889.169.184.079.247-1.083.458zm-1.074-.074l-.74-.895.113-.109.133-.076.494 1.081zm-.492 1.199l.72-.997.146.119.1.165-.966.713zm1.826 3.999l.494 1.081-1.181.675-.401-1.317 1.089-.439zm-1.995-5.278l1.106-.378-2.137.967 1.032-.59zm-2.241-4.908l-1.032.59-.058-.127-.028-.139 1.118-.324zm1.403-.115l.956-.73 1.219 1.925-2.218.037.043-1.231zM5.557 5.726l.72-.997.25.204.108.32-1.078.473zm-.991.108l-.74-.895.113-.109.133-.076.494 1.081zm-.492 1.199l.72-.997.138.113.098.154-.956.73zM5.9 11.031l.494 1.081-1.181.675-.401-1.317 1.089-.439zm.66-.377l.917.682-.169.253-.255.146-.494-1.081zM3.822 5.571l-1.032.59-.058-.127-.028-.139 1.118-.324zm1.403-.115l.956-.73L7.4 6.651l-2.218.037.043-1.231zM3.398 1l.72-.997.25.204.108.32L3.398 1zm-.991.108l-.74-.895.113-.109.133-.076.494 1.081zm-.492 1.199l.789-.936.095.092.072.114-.956.73zm1.826 3.999l.494 1.081-1.181.675-.401-1.317 1.089-.439zm.577-.559L3.23 5.429l.151-.511.443-.253.494 1.081zM2.264 9.901l-.408 1.172.659-2.386-.251 1.214zm2.396.693l.522-1.124-.93 2.296.408-1.172zM1.85 9.45l-.553 1.108.961-2.28L1.85 9.45zm2.562 1.057l.652-1.048L3.89 11.63l.522-1.124zm.166.364l-.494-1.081h0l.494 1.081zm-.248-.087l.043-1.231.69-.011.298.653-1.032.59zm-3.302.054l-.251 1.214.197-2.439.055 1.225zm.331.269l-.043 1.231-.172-2.427.215 1.196zm2.807-.229l.043-1.231.012 2.457-.055-1.225zm-2.311.404l.055 1.225-.27-2.421.215 1.196zm2.559-.317l.043-1.231.081 2.447-.124-1.215zm0 0l.494 1.081-.176.101-.194.034-.124-1.215zm-1.398 2.404l.74.895-1.547-1.72.807.825zm1.979-1.132l-.494-1.081 1.349 1.849-.855-.768zm-.247.37l-.807-.825 1.804 1.371-.997-.546zm.247-.37l-.997-.546 2.084.864-1.088-.317zm-.492 1.199l.917.682-2.005-.999 1.088.317zm.492-1.199l-.917-.682.169-.253.255-.146.494 1.081zm.906-.747l-.494-1.081 1.032-.59.494 1.081-1.032.59zm.331.269l.408-1.172.355.125.203.334-.966.713zm1.826 3.999l.494 1.081-1.181.675-.401-1.317 1.089-.439zm.66-.377l.917.682-.169.253-.255.146-.494-1.081zm.825-.471l.956-.73 1.219 1.925-2.218.037.043-1.231zm-1.827-4.457l.72-.997.25.204.108.32-1.078.473zm-.991.108l-.807-.825.138-.156.176-.1.494 1.081zm-.906.747l1.088.317-.884 2.979-1.236-2.706 1.032-.59zm-1.159-1.171l.522-1.124.176.087.136.148-.834.889zM.941 8.824l-1.032.59-1.018-2.23 2.301.426-.251 1.214zm2.646 1.696l.522-1.124-.656 2.353.133-1.229zm-3.301.512l-.553 1.108-1.943-1.044 2.003-1.145.494 1.081zm4.789.013l.494 1.081-.107.061-.116.037-.271-1.179zm.248.088l-.408 1.172-.427-.151-.197-.432 1.032-.59zm.579.357l1.032-.59.494 1.081-1.032.59-.494-1.081zm-.578.101l-.494-1.081.443-.253.459.162-.408 1.172zm-.495.283l.494 1.081-.107.061-.116.037-.271-1.179zm-2.555 1.69l-.408 1.172-1.807-.638 1.475-1.43.74.895zM4.5 12.52l-.696-.936 1.613 1.618-.917-.682zm-1.398 2.404l.215 1.196-2.421.637 1.21-2.379.997.546zm2.139-3.057l-1.136-.08.074-.676.568-.325.494 1.081zm4.033 8.443c-.089-.357-.282-.797-.572-1.375l-.931-1.867 2.063-1.18.894 1.789c.291.581.596 1.231.757 1.877l-2.211.755zm.56-4.421l.009.019.009.019.009.019.009.019.009.019.009.019.009.019.009.019.009.019.009.019.009.019.009.019.009.019.009.019.009.019.009.019.009.019.009.019.009.019.009.019.009.019.009.019.009.019.009.019.009.019.009.019.009.019.009.019.009.019.009.019.009.019.009.019.009.019.009.019.009.019.009.019.009.019.009.019.009.019.009.019.009.019.009.019.009.019.009.019.009.019.009.019.009.019.009.019.009.02.009.019.009.02.009.019.009.02.009.019.009.02.009.02.009.02.009.02.009.02.009.02.009.02.009.02.009.02.009.02.009.02.009.02.009.02.009.02.009.02.009.02.009.02.009.02.009.02.009.02.009.02.009.02.009.02.009.02.009.02.009.02.009.02.009.02.009.02.009.02.009.02.009.02.009.02.009.02.009.02.009.02.009.02.009.02.009.02.009.02.009.02.009.02.009.02.009.02.009.02.009.02.009.02.009.02.009.02.009.02.009.02.009.02.009.02.009.02.009.02.009.021.009.02.009.021.009.021.009.021.009.021.009.021.009.021.01.021.009.021.009.021.009.021.009.021.01.021.009.021.01.021.009.021.01.021.01.021.01.021.01.021.01.021.01.021.01.021.01.021.01.021.01.021.01.021.01.021.01.021.01.021.01.021.01.021.01.021.01.021.01.021.01.021.01.021.01.022.01.022.01.022.01.022.01.022.01.022.01.022.01.022.01.022.01.022.01.022.01.022.01.022.01.022.01.022.01.022.01.022.01.022.01.022.01.022.01.022.01.022.01.022-2.057 1.195-.01-.022-.01-.022-.01-.022-.01-.022-.01-.022-.01-.022-.01-.022-.01-.022-.01-.022-.01-.022-.01-.022-.01-.022-.01-.022-.01-.022-.01-.022-.01-.022-.01-.022-.01-.022-.01-.022-.01-.022-.01-.022-.01-.022-.01-.022-.01-.021-.01-.022-.01-.021-.01-.021-.01-.021-.01-.021-.01-.021-.01-.021-.01-.021-.01-.021-.01-.021-.01-.021-.01-.021-.01-.021-.01-.021-.01-.021-.01-.021-.01-.021-.01-.021-.01-.021-.01-.021-.01-.021-.01-.021-.01-.021-.01-.021-.009-.021-.009-.021-.009-.021-.009-.021-.009-.021-.009-.021-.009-.021-.009-.021-.009-.021-.009-.021-.009-.021-.009-.021-.009-.021-.009-.02-.009-.02-.009-.02-.009-.02-.009-.02-.009-.02-.009-.02-.009-.02-.009-.02-.009-.02-.009-.02-.009-.02-.009-.02-.009-.02-.009-.02-.009-.02-.009-.02-.009-.02-.009-.02-.009-.02-.009-.02-.009-.02-.009-.02-.009-.02-.009-.02-.009-.02-.009-.02-.009-.02-.009-.02-.009-.02-.009-.02-.009-.02-.009-.02-.009-.02-.009-.02-.009-.02-.009-.02-.009-.02-.009-.02-.009-.02-.009-.02-.009-.02-.009-.02-.009-.02-.009-.02-.009-.02-.009-.02-.009-.02-.009-.02-.009-.02-.009-.02-.009-.02-.009-.02-.009-.02-.009-.02-.009-.02-.009-.019-.009-.02-.009-.019-.009-.019-.009-.02-.009-.019-.009-.019-.009-.019-.009-.019-.009-.019-.009-.019-.009-.019-.009-.019-.009-.019-.009-.019-.009-.019-.009-.019-.009-.019-.009-.019-.009-.019-.009-.019-.009-.019-.009-.019-.009-.019-.009-.019-.009-.019-.009-.019-.009-.019-.009-.019-.009-.019-.009-.019-.009-.019-.009-.019-.009-.019-.009-.019-.009-.019-.009-.019-.009-.019-.009-.019-.009-.019-.009-.019-.009-.019-.009-.019-.009-.019-.009-.019-.009-.019-.009-.019-.009-.019-.009-.019-.009-.019-.009-.019-.009-.019-.009-.019 2.058-1.193zm.983 4.642c-.914-1.499-1.452-3.187-1.944-4.712l2.165-.916c.507 1.572.967 2.981 1.711 4.202l-1.932 1.427zm-1.696-4.281c-.03-.032-.016-.007.047.021.072.033.159.048.245.041.075-.006.117-.027.104-.021-.02.009-.049.024-.142.077l-.987-2.162c.116-.067.508-.312.973-.35.574-.047 1.055.209 1.429.616l-1.669 1.778zm.501-.067c-.202.196-.4.347-.52.44l-.127.1c-.026.022-.004.007.034-.039s.132-.172.188-.372a1.09 1.09 0 0 0-.007-.615c-.048-.151-.115-.232-.126-.245s-.006-.004.045.038l-1.44 1.994c-.185-.15-.506-.433-.648-.879a1.54 1.54 0 0 1-.014-.881 1.68 1.68 0 0 1 .326-.618c.18-.218.42-.395.502-.458l.307-.255 1.48 1.791zm-.266-.41c.874 1.433 1.499 2.797 1.949 4.273l-2.177.878c-.383-1.257-.919-2.438-1.704-3.725l1.932-1.427zm.366 3.631l.018-.01.018-.01.018-.01.017-.01.018-.01.017-.01.018-.01.018-.01.019-.011.018-.01.018-.01.018-.01.018-.01.018-.011.019-.011.019-.011.017-.01.017-.01.019-.011.017-.01.019-.011.019-.011.019-.011.018-.011.018-.01.018-.01.018-.01.018-.01.018-.011.018-.01.018-.01.018-.011.018-.01.018-.011.017-.01.018-.01.997 2.156-.018.01-.018.01-.018.01-.017.01-.018.01-.017.01-.018.01-.018.01-.019.011-.018.01-.018.01-.018.01-.018.011-.018.011-.019.011-.019.011-.019.011-.017.01-.019.011-.017.01-.019.011-.019.011-.019.011-.018.011-.018.01-.018.01-.018.01-.018.01-.018.011-.018.01-.018.01-.018.01-.018.01-.018.01-.018.011-.018.01-.995-2.158zm.66-.377c-.007.004-.004.004.053-.041.034-.027.175-.146.339-.24.197-.113.434-.198.712-.213a1.83 1.83 0 0 1 .706.113l-.815 2.345c-.04-.014.002.008.097.003.049-.003.103-.012.159-.029a.67.67 0 0 0 .13-.056l.038-.024-.059.047c-.067.054-.198.16-.37.258l-.987-2.162zm-3.266-3.443c-.089-.357-.282-.797-.572-1.375l-.931-1.867 2.063-1.18.894 1.789c.291.581.596 1.231.757 1.877l-2.211.755zm.56-4.421l.009.019.009.019.009.019.009.019.009.019.009.019.009.019.009.019.009.019.009.019.009.019.009.019.009.019.009.019.009.019.009.019.009.019.009.019.009.019.009.019.009.019.009.019.009.019.009.019.009.019.009.019.009.019.009.019.009.019.009.019.009.019.009.019.009.019.009.019.009.019.009.019.009.019.009.019.009.019.009.019.009.019.009.019.009.019.009.019.009.019.009.019.009.019.009.019.009.019.009.02.009.019.009.02.009.019.009.02.009.02.009.019.009.02.009.019.009.02.009.02.009.02.009.02.009.02.009.02.009.02.009.02.009.02.009.02.009.02.009.02.009.02.009.02.009.02.009.02.009.02.009.02.009.02.009.02.009.02.009.02.009.02.009.02.009.02.009.02.009.02.009.02.009.02.009.02.009.02.009.02.009.02.009.02.009.02.009.02.009.02.009.02.009.02.009.02.009.02.009.02.009.02.009.02.009.02.009.02.009.02.009.02.009.02.009.02.009.021.009.021.009.021.009.021.009.021.009.021.009.021.009.021.009.021.009.021.009.021.009.021.009.021.009.021.01.021.01.021.01.021.01.021.01.021.01.021.01.021.01.021.01.021.01.021.01.021.01.021.01.021.01.021.01.021.01.021.01.021.01.021.01.021.01.021.01.021.01.021.01.022.01.021.01.021.01.022.01.022.01.022.01.022.01.022.01.022.01.022.01.022.01.022.01.022.01.022.01.022.01.022.01.022.01.022.01.022.01.022.01.022.01.022.01.022.01.022.01.022.01.022-2.057 1.195-.01-.022-.01-.022-.01-.022-.01-.022-.01-.022-.01-.022-.01-.022-.01-.022-.01-.022-.01-.022-.01-.022-.01-.022-.01-.022-.01-.022-.01-.022-.01-.022-.01-.022-.01-.022-.01-.022-.01-.022-.01-.022-.01-.022-.01-.022-.01-.021-.01-.022-.01-.021-.01-.021-.01-.021-.01-.021-.01-.021-.01-.021-.01-.021-.01-.021-.01-.021-.01-.021-.01-.021-.01-.021-.01-.021-.01-.021-.01-.021-.01-.021-.01-.021-.01-.021-.01-.021-.01-.021-.01-.021-.01-.021-.01-.021-.01-.021-.009-.021-.009-.021-.009-.021-.009-.021-.009-.021-.009-.021-.009-.021-.009-.021-.009-.021-.009-.021-.009-.021-.009-.021-.009-.021-.009-.02-.009-.021-.009-.02-.009-.02-.009-.02-.009-.02-.009-.02-.009-.02-.009-.02-.009-.02-.009-.02-.009-.02-.009-.02-.009-.02-.009-.02-.009-.02-.009-.02-.009-.02-.009-.02-.009-.02-.009-.02-.009-.02-.009-.02-.009-.02-.009-.02-.009-.02-.009-.02-.009-.02-.009-.02-.009-.02-.009-.02-.009-.02-.009-.02-.009-.02-.009-.02-.009-.02-.009-.02-.009-.02-.009-.02-.009-.02-.009-.02-.009-.02-.009-.02-.009-.02-.009-.02-.009-.02-.009-.02-.009-.02-.009-.02-.009-.02-.009-.019-.009-.02-.009-.02-.009-.019-.009-.02-.009-.019-.009-.019-.009-.019-.009-.019-.009-.019-.009-.019-.009-.019-.009-.019-.009-.019-.009-.019-.009-.019-.009-.019-.009-.019-.009-.019-.009-.019-.009-.019-.009-.019-.009-.019-.009-.019-.009-.019-.009-.019-.009-.019-.009-.019-.009-.019-.009-.019-.009-.019-.009-.019-.009-.019-.009-.019-.009-.019-.009-.019-.009-.019-.009-.019-.009-.019-.009-.019-.009-.019-.009-.019-.009-.019-.009-.019-.009-.019-.009-.019-.009-.019-.009-.019-.009-.019-.009-.019-.009-.019-.009-.019-.009-.019-.009-.019-.009-.019-.009-.019-.009-.019-.009-.019 2.058-1.193zm-2.814-.54c-.045-.223-.216-.628-.518-1.23l-.89-1.776 2.063-1.18.852 1.698c.279.556.606 1.242.728 1.84l-2.236.648zm.655-4.186l.009.019.009.019.009.019.009.019.009.019.009.019.009.019.009.019.009.019.009.019.009.019.009.019.009.019.009.019.009.019.009.019.009.019.009.019.009.019.009.019.008.019.008.019.008.019.008.019.008.019.008.019.008.018.008.018.008.018.008.018.008.018.008.018.008.018.008.018.008.018.008.018.008.018.008.018.008.018.008.018.008.018.008.018.008.018.008.018.008.018.008.018.008.018.008.018.008.018.008.018.008.018.008.018.008.018.008.018.008.018.008.018.008.018.008.018.008.018.008.018.008.019.008.019.008.019.008.019.008.019.009.019.008.019.009.019.009.019.009.019.009.019.009.019.009.019.009.019.009.019.009.019.009.019.009.019.009.019.009.019.009.019.009.019.009.019.009.019.009.019.009.019.009.019.009.019.009.019.009.019.009.019.009.019.009.019.009.02.009.02.009.02.009.02.009.02.009.02.009.02.009.02.009.02.009.02.009.02.009.02.009.02.009.02.009.02.009.02.009.02.009.02.009.02.009.021.009.021.009.021.009.021.009.021.01.021.01.021.01.021.01.021.01.021.01.021.01.021.01.021.01.021.01.021.01.022.01.022.01.022.01.022.01.022.01.022.01.022.01.022.01.022.01.022.01.022.01.022.01.022.01.023.01.023.01.023.01.023.01.023.011.023.011.023.011.023.011.023.011.023.011.023.011.024.011.024.011.024.011.024.011.024.011.024.011.024.011.024.011.024.011.024.011.025.011.025.011.025.011.025.011.025.011.025.012.025.012.025.012.025-2.056 1.197-.012-.026-.012-.025-.012-.025-.011-.025-.011-.025-.011-.025-.011-.025-.011-.025-.011-.025-.011-.025-.011-.024-.011-.024-.011-.024-.011-.024-.011-.024-.011-.024-.011-.024-.011-.024-.011-.024-.011-.024-.011-.023-.011-.023-.011-.023-.011-.023-.011-.023-.01-.023-.01-.023-.01-.023-.01-.023-.01-.023-.01-.023-.01-.022-.01-.022-.01-.022-.01-.022-.01-.022-.01-.022-.01-.022-.01-.022-.01-.022-.01-.022-.01-.022-.01-.022-.01-.021-.01-.021-.01-.021-.01-.021-.01-.021-.01-.021-.01-.021-.01-.021-.01-.021-.01-.021-.01-.021-.009-.021-.009-.021-.009-.021-.009-.021-.009-.021-.009-.02-.009-.02-.009-.02-.009-.02-.009-.02-.009-.02-.009-.02-.009-.02-.009-.02-.009-.02-.009-.02-.009-.02-.009-.02-.009-.02-.009-.02-.009-.02-.009-.02-.009-.02-.009-.019-.009-.019-.009-.019-.009-.019-.009-.019-.009-.019-.009-.019-.009-.019-.009-.019-.009-.019-.009-.019-.009-.019-.009-.019-.009-.019-.009-.019-.009-.019-.009-.019-.009-.019-.009-.019-.009-.019-.009-.019-.009-.019-.009-.019-.009-.019-.009-.019-.009-.019-.009-.019-.008-.019-.008-.019-.008-.019-.008-.019-.008-.019-.008-.019-.008-.019-.008-.018-.008-.018-.008-.018-.008-.018-.008-.018-.008-.018-.008-.018-.008-.018-.008-.018-.008-.018-.008-.018-.008-.018-.008-.018-.008-.018-.008-.018-.008-.018-.008-.018-.008-.018-.008-.018-.008-.018-.008-.018-.008-.018-.008-.018-.008-.018-.008-.018-.008-.018-.008-.018-.008-.018-.008-.018-.008-.018-.008-.018-.008-.018-.008-.018-.008-.018-.008-.019-.008-.019-.008-.019-.008-.019-.008-.019-.008-.019-.008-.019-.009-.019-.009-.019-.009-.019-.009-.019-.009-.019-.009-.019-.009-.019-.009-.019-.009-.019-.009-.019-.009-.019-.009-.019-.009-.019-.009-.019-.009-.019-.009-.019-.009-.019-.009-.019 2.058-1.193zm.546 4.044c1.032-.59 0 0-1.032.59l-.008-.018-.008-.018-.008-.019-.008-.019-.008-.018-.009-.019-.008-.019-.009-.019-.008-.018 2.056-1.195.008.019.009.019.008.018.008.018.008.018.008.018.008.019.008.018.008.018-1.024.606zm.364.433c-.84-1.326-1.386-3.04-1.949-4.714l2.156-.946c.601 1.787 1.053 3.17 1.705 4.2l-1.912 1.46zm-1.591-4.19a.47.47 0 0 0 .197.089.49.49 0 0 0 .203.001c.032-.007.037-.013-.001.005l-.176.097-.987-2.162c.128-.073.45-.268.813-.35a1.59 1.59 0 0 1 1.391.326l-1.44 1.994zm.469.006c-.202.196-.4.347-.52.44l-.127.1c-.026.022-.004.007.034-.039s.132-.172.188-.372a1.09 1.09 0 0 0-.007-.615c-.048-.151-.115-.232-.126-.245s-.006-.004.045.038l-1.44 1.994c-.185-.15-.506-.433-.648-.879a1.54 1.54 0 0 1-.014-.881 1.68 1.68 0 0 1 .326-.618c.18-.218.42-.395.502-.458l.307-.255 1.48 1.791zm-.276-.427a18.29 18.29 0 0 1 1.959 4.29l-2.177.878a15.91 15.91 0 0 0-1.693-3.708l1.912-1.46zm.377 3.648l.018-.01.018-.01.018-.01.017-.01.018-.01.017-.01.018-.01.018-.01.019-.011.018-.01.018-.01.018-.01.018-.01.018-.011.019-.011.019-.011.019-.011.017-.01.017-.01.017-.01.019-.011.019-.011.019-.011.018-.011.018-.01.018-.01.018-.01.017-.01.018-.011.018-.01.018-.01.018-.011.018-.01.018-.01.017-.01.018-.01.997 2.156-.018.01-.018.01-.018.01-.017.01-.018.01-.017.01-.018.01-.018.011-.019.011-.018.01-.018.01-.018.01-.018.011-.018.011-.019.011-.019.011-.019.011-.017.01-.017.01-.017.01-.019.011-.019.011-.019.011-.018.011-.018.01-.018.01-.018.01-.017.01-.018.011-.018.01-.018.01-.018.011-.018.01-.018.01-.017.01-.018.01-.997-2.156zm.236.022c.158-.237.396-.555.774-.771s.747-.245 1.012-.25l-.087 2.463-.073.003c.019-.004.071-.017.135-.054a.52.52 0 0 0 .119-.091c.009-.01-.004.002-.045.064L5.642 9.972zM2.705 5.895c-.045-.223-.216-.628-.518-1.23l-.89-1.776L3.36 1.71l.852 1.698c.279.556.606 1.242.728 1.84l-2.236.648zM3.36 1.71l.009.019.009.019.009.019.009.019.009.019.009.019.009.019.009.019.009.019.009.019.009.019.009.019.009.019.009.019.009.019.009.019.009.019.009.019.009.019.008.019.008.019.008.019.008.019.008.019.008.019.008.019.008.018.008.018.008.018.008.018.008.018.008.018.008.018.008.018.008.018.008.018.008.018.008.018.008.018.008.018.008.018.008.018.008.018.008.018.008.018.008.018.008.018.008.018.008.018.008.018.008.018.008.018.008.018.008.018.008.018.008.018.008.018.008.018.008.018.008.018.008.019.008.019.008.019.008.019.008.019.009.019.008.019.009.019.009.019.009.019.009.019.009.019.009.019.009.019.009.019.009.019.009.019.009.019.009.019.009.019.009.019.009.019.009.019.009.019.009.019.009.019.009.019.009.019.009.019.009.019.009.019.009.019.009.019.009.02.009.02.009.02.009.02.009.02.009.02.009.02.009.02.009.02.009.02.009.02.009.02.009.02.009.02.009.02.009.02.009.02.009.02.009.02.009.021.009.021.009.021.009.021.009.021.01.021.01.021.01.021.01.021.01.021.01.021.01.021.01.021.01.021.01.021.01.022.01.022.01.022.01.022.01.022.01.022.01.022.01.022.01.022.01.022.01.022.01.022.01.022.01.023.01.023.01.023.01.023.01.023.011.023.011.023.011.023.011.023.011.023.011.023.011.024.011.024.011.024.011.024.011.024.011.024.011.024.011.024.011.024.011.024.011.025.011.025.011.025.011.025.011.025.011.025.012.025.012.025.012.025-2.056 1.197-.012-.026-.012-.025-.012-.025-.012-.025-.011-.025-.011-.025-.011-.025-.011-.025-.011-.025-.011-.025-.011-.024-.011-.024-.011-.024-.011-.024-.011-.024-.011-.024-.011-.024-.011-.024-.011-.024-.011-.024-.011-.023-.011-.023-.011-.023-.011-.023-.011-.023-.01-.023-.01-.023-.01-.023-.01-.023-.01-.023-.01-.023-.01-.022-.01-.022-.01-.022-.01-.022-.01-.022-.01-.022-.01-.022-.01-.022-.01-.022-.01-.022-.01-.022-.01-.022-.01-.022-.01-.021-.01-.021-.01-.021-.01-.021-.01-.021-.01-.021-.01-.021-.01-.021-.01-.021-.01-.021-.009-.021-.009-.021-.009-.021-.009-.021L2.261 5l-.009-.02-.009-.02-.009-.02-.009-.02-.009-.02-.009-.02-.009-.02-.009-.02-.009-.02-.009-.02-.009-.02-.009-.02-.009-.02-.009-.02-.009-.02-.009-.02-.009-.02-.009-.02-.009-.019-.009-.019-.009-.019-.009-.019-.009-.019-.009-.019-.009-.019-.009-.019-.009-.019-.009-.019L2 4.429l-.009-.019-.009-.019-.009-.019-.009-.019-.009-.019-.009-.019-.009-.019-.009-.019-.009-.019-.009-.019-.009-.019-.009-.019-.009-.019-.009-.019-.009-.019-.009-.019-.008-.019-.008-.019-.008-.019-.008-.019-.008-.019-.008-.019-.008-.018-.008-.018-.008-.018-.008-.018-.008-.018-.008-.018-.008-.018-.008-.018-.008-.018-.008-.018-.008-.018-.008-.018-.008-.018-.008-.018-.008-.018-.008-.018-.008-.018-.008-.018-.008-.018-.008-.018-.008-.018-.008-.018-.008-.018-.008-.018-.008-.018-.008-.018-.008-.018-.008-.018-.008-.018-.008-.018-.008-.018-.008-.018-.008-.018-.008-.018-.008-.018-.008-.019-.008-.019-.008-.019-.008-.019-.008-.019-.008-.019-.009-.019-.009-.019-.009-.019-.009-.019-.009-.019-.009-.019-.009-.019-.009-.019-.009-.019-.009-.019-.009-.019-.009-.019-.009-.019-.009-.019-.009-.019-.009-.019-.009-.019-.009-.019-.009-.019L3.36 1.71zm-.486 4.633l-.083-.182 2.063-1.18.083.182-2.063 1.18zm1.396-.156c-.84-1.326-1.386-3.04-1.949-4.714L4.476.527c.601 1.787 1.053 3.17 1.705 4.2L4.27 6.187zm-1.591-4.19a.47.47 0 0 0 .197.089.49.49 0 0 0 .203.001c.032-.007.037-.013-.001.005l-.176.097L1.914.027c.128-.073.45-.268.813-.35a1.59 1.59 0 0 1 1.391.326l-1.44 1.994zm.469.006c-.24.233-.478.387-.63.483l-.16.1c-.036.024-.004.006.048-.044a1.07 1.07 0 0 0 .269-.451 1.1 1.1 0 0 0 .002-.663c-.042-.126-.093-.186-.081-.171.007.009.037.045.108.114L1.127 3.242c-.186-.18-.476-.477-.61-.882a1.53 1.53 0 0 1-.008-.935C.611 1.094.8.874.926.751c.196-.19.484-.354.522-.378.111-.069.172-.114.22-.161l1.48 1.791zm-.276-.427a18.29 18.29 0 0 1 1.959 4.29l-2.177.878A15.91 15.91 0 0 0 .96 3.036l1.912-1.46zm.377 3.648l.099-.059.049-.034c.007-.006-.012.008-.041.046a.77.77 0 0 0-.125.252l2.176.634a2.06 2.06 0 0 1-.681.993c-.205.169-.414.286-.49.329l-.987-2.162zm.577-.559c.144-.082.36-.21.608-.299a2.53 2.53 0 0 1 .836-.141l-.087 2.463a.83.83 0 0 0-.115.008c-.022.005-.036.011-.074.031l-.181.101-.987-2.162zm.896 7.24c-.387-.047-.722-.122-1.007-.185l-.81-.151.376-2.448c.387.047.722.122 1.007.185l.81.151-.376 2.447zM3.279 9.121c.576.07 1.154.076 2.037.388l-.815 2.345c-.605-.214-.852-.194-1.598-.285l.376-2.448zm1.221 2.732c-1.002-.354-1.671-.588-2.488-.739l.503-2.428c1.001.185 1.818.476 2.8.822l-.815 2.345zM2.672 8.728c.318.112.619.186 1.015.286l1.381.407-.815 2.345c-.45-.159-.825-.257-1.201-.352l-1.196-.341.815-2.345zm1.466 2.989c-.474-.235-.915-.391-1.383-.556-.452-.159-.962-.337-1.458-.604l1.107-2.216c.331.178.688.306 1.166.475l1.613.653-1.045 2.248zm-1.88-3.44c.753.266 1.544.545 2.677 1.105L3.89 11.63c-1.017-.503-1.713-.749-2.447-1.008l.815-2.345zm1.503 3.277c-.778-.535-1.639-.845-2.649-1.202l.815-2.345c.973.343 2.095.733 3.137 1.45l-1.303 2.096zM1.927 8.008c1.054.372 2.198.938 3.483 1.54l-1.004 2.267-3.294-1.462.815-2.345zm3.389 1.501l.02.007.02.007.02.007.02.007.019.007.02.007.019.007.019.007.019.007c.011.004.011.004-.397 1.176l-.408 1.172-.019-.007-.019-.007-.019-.007-.019-.007-.02-.007-.02-.007-.019-.007-.019-.007-.019-.007.802-2.349.02.007.02.007.02.007.02.007.019.007.02.007.019.007.019.007.019.007c.011.004.011.004-.397 1.176l-.408 1.172-.019-.007-.019-.007-.019-.007-.019-.007-.02-.007-.02-.007-.019-.007-.019-.007-.019-.007.802-2.349zm-.737 1.361l.493 1.082-.037.02-.048.024a1.37 1.37 0 0 1-.127.053c-.094.034-.24.074-.417.077-.184.003-.416-.035-.645-.176s-.396-.354-.498-.577l2.063-1.18c-.061-.133-.172-.286-.351-.397a.89.89 0 0 0-.768-.081c-.033.012-.062.024-.087.036l-.037.018-.026.014c-.008.005-.009.005.485 1.086zm-.291 1.144c-1.37.023-2.273-.053-3.204.048l-.11-2.45c1.049-.114 2.294-.042 3.401-.061l-.087 2.463zM1.28 9.623c.73.135 1.558.053 2.583-.059l.11 2.45c-.956.104-2.108.238-3.196.037l.503-2.428zm2.693 2.392c-1.131.123-1.761.119-2.399.287l-.43-2.391c.847-.223 1.869-.254 2.719-.347l.11 2.45zm-2.57-2.14c.766-.013 1.703-.114 2.708-.223l.11 2.45-2.905.236.087-2.463zm2.72 2.233c-.677.011-1.296.169-2.052.368l-.43-2.391c.729-.192 1.595-.424 2.569-.44l-.087 2.463zM1.8 10.056l1.292-.187c.423-.066.875-.128 1.365-.136l-.087 2.463c-.336.005-.668.048-1.07.11l-1.39.2-.11-2.45zm2.738 2.124l-.867.152-.867.152-.249-2.431.867-.152.867-.152.249 2.431zm-1.982-2.127l.867-.152.867-.152.249 2.431-.867.152-.867.152-.249-2.431zm1.364-.169l.018-.01.018-.01.018-.01.018-.01.018-.01.017-.01.018-.01.018-.01.017-.01.499 1.078c-.494-1.081 0 0 .494 1.081l-.017.01-.017.01-.018.01-.017.01-.018.01-.018.01-.018.01-.018.01-.018.01-.993-2.159zm1.65 3.158c.006-.004-.007.003-.052.041l-.2.182c-.18.166-.449.407-.819.619l-.987-2.162c.124-.071.226-.156.376-.293.116-.107.382-.369.696-.548l.987 2.162zm-2.059-1.32c-.006.004.007-.003.052-.041l.2-.182a4.45 4.45 0 0 1 .819-.619l.987 2.162c-.124.071-.226.156-.376.294-.116.107-.382.369-.696.548l-.987-2.162zm2.059 1.32c-.155.088-.347.236-.635.463-.247.194-.591.467-.931.662l-.987-2.162c.155-.088.347-.236.635-.463.247-.194.591-.468.931-.662l.987 2.162zm-2.553-1.037c.142-.081.288-.198.53-.397.212-.175.519-.432.871-.633l.987 2.162c-.142.081-.288.198-.53.397-.212.175-.519.432-.871.633l-.987-2.162zm2.388 1.132c-.68.389-1.204.695-1.65 1.128l-1.48-1.791c.707-.685 1.502-1.133 2.142-1.499l.987 2.162zm-3.197-.593c.58-.654 1.446-1.133 2.044-1.475l.987 2.162c-.721.412-1.174.688-1.417.963l-1.615-1.65zm3.032.687l-.019.011-.019.011-.019.011-.019.011-.019.011-.019.011-.019.011-.019.011-.019.011-.019.011-.019.011-.019.011-.019.011-.019.011-.019.011-.019.011-.019.011-.019.011-.019.011-.019.011-.019.011-.019.011-.019.011-.019.011-.019.011-.019.011-.019.011-.019.011-.019.011-.019.011-.019.011-.019.011-.019.011-.019.011-.019.011-.019.011-.019.011-.019.011-.019.011-.019.011-.019.011-.019.011-.019.011-.019.011-.019.011-.019.011-.019.011-.019.011-.019.011-.019.011-.019.011-.019.011-.019.011-.019.011-.019.011-.019.011-.019.011-.019.011-.019.011-.019.011-.019.011-.019.011-.019.011-.019.011-.019.011-.019.011-.019.011-.019.011-.019.011-.019.011-.019.011-.019.011-.019.011-.019.011-.019.011-.019.011-.019.011-.019.011-.019.011-.019.011-.019.011-.019.011-.019.011-.019.011-.019.011-.019.011-.019.011-.019.011-.019.011-.019.011-.019.011-.019.011-.019.011-.019.011-.019.011-.019.011-.019.011-.019.011-.019.011-.019.011-.019.011-.019.011-.995-2.158.019-.011.019-.011.019-.011.019-.011.019-.011.019-.011.019-.011.019-.011.019-.011.019-.011.019-.011.019-.011.019-.011.019-.011.019-.011.019-.011.019-.011.019-.011.019-.011.019-.011.019-.011.019-.011.019-.011.019-.011.019-.011.019-.011.019-.011.019-.011.019-.011.019-.011.019-.011.019-.011.019-.011.019-.011.019-.011.019-.011.019-.011.019-.011.019-.011.019-.011.019-.011.019-.011.019-.011.019-.011.019-.011.019-.011.019-.011.019-.011.019-.011.019-.011.019-.011.019-.011.019-.011.019-.011.019-.011.019-.011.019-.011.019-.011.019-.011.019-.011.019-.011.019-.011.019-.011.019-.011.019-.011.019-.011.019-.011.019-.011.019-.011.019-.011.019-.011.019-.011.019-.011.019-.011.019-.011.019-.011.019-.011.019-.011.019-.011.019-.011.019-.011.019-.011.019-.011.019-.011.019-.011.019-.011.019-.011.019-.011.019-.011.019-.011.019-.011.019-.011.019-.011.019-.011.019-.011.019-.011.019-.011.019-.011.019-.011.019-.011.019-.011.019-.011.995 2.158zM2.274 12.2c.26-.149.549-.36.94-.644l1.285-.858.987 2.162c-.348.199-.69.443-1.064.715l-1.162.787-.987-2.162zM4.5 10.698c.411-.235 1.295-.356 1.691.511s-.209 1.598-.62 1.833l-.987-2.162c-.246.141-.81.733-.456 1.509s1.114.612 1.36.471L4.5 10.698zm1.153 2.526l-.018.01-.018.01-.018.01-.018.01-.018.01-.017.01-.018.01-.018.01-.017.01-.499-1.078c.494 1.081 0 0-.494-1.081l.017-.01.017-.01.018-.01.017-.01.018-.01.018-.01.018-.01.018-.01.018-.01.993 2.159zm.197-.219c-.628.796-1.065 1.461-1.339 2.001l-1.993-1.093c.383-.753.933-1.569 1.622-2.443l1.71 1.535zm-3.332.908c.372-.732.927-1.57 1.423-2.13l1.615 1.65c-.327.369-.76 1.013-1.045 1.573l-1.993-1.093zm3.227-.759c-.205.404-.434.744-.614 1.015l-.455.743-1.993-1.093c.205-.404.434-.744.614-1.014l.455-.743 1.993 1.093zm-3.062.665l.617-1.093.534-.941 1.993 1.093-.617 1.093-.534.941-1.993-1.093zm3.144-.941l-.362.805c-.107.252-.254.596-.457.9l-1.834-1.364c.044-.066.102-.183.221-.462l.439-.971 1.993 1.093zm-2.653.34c.192-.288.478-.846.825-1.527l1.993 1.093-.984 1.799-1.834-1.364zm2.909-.664c-.111.375-.248.678-.35.895l-.118.251-.024.052-2.176-.634c.047-.159.108-.3.153-.4l.136-.288c.083-.175.151-.333.203-.51l2.176.635zm-2.498.199c-.007.01.005.002.076-.234.053-.178.163-.583.417-.964l1.834 1.364c.007-.01-.005-.002-.076.234-.053.178-.163.583-.417.964l-1.834-1.364zm.916-1.597l.165-.094.987 2.162-.165.094-.987-2.162zm.577-.559l.018-.01.018-.01.017-.01.017-.01.018-.01.018-.01.018-.01.018-.01.018-.01.017-.01.017-.01.018-.01.018-.01.017-.01.018-.01.018-.01.018-.01.018-.01.999 2.156-.018.01-.018.01-.017.01-.017.01-.018.01-.018.01-.018.01-.018.01-.018.01-.017.01-.017.01-.017.01-.018.01-.017.01-.018.01-.018.01-.018.01-.018.01-1-2.155zm1.855.303l.018.04c.002.005-.005-.01-.018-.033a.9.9 0 0 0-.209-.244c-.093-.076-.173-.108-.174-.108l.089.032-.815 2.345-.2-.075c-.074-.031-.205-.09-.34-.2a1.33 1.33 0 0 1-.312-.371c-.05-.086-.091-.18-.103-.206l2.063-1.18zm.265.146c.874 1.433 1.499 2.797 1.949 4.273l-2.177.878c-.383-1.257-.919-2.438-1.704-3.725l1.932-1.427zm.366 3.631l.018-.01.018-.01.018-.01.017-.01.018-.01.019-.011.018-.01.018-.011.019-.011.018-.01.018-.01.018-.01.018-.011.018-.011.019-.011.019-.011.019-.011.017-.01.017-.01.017-.01.019-.011.019-.011.019-.011.018-.011.018-.01.018-.01.018-.01.017-.01.018-.011.018-.01.018-.01.018-.011.018-.01.018-.01.017-.01.018-.01.996 2.157-.018.01-.018.01-.018.01-.017.01-.018.01-.017.01-.018.01-.018.011-.019.011-.018.01-.018.01-.018.01-.018.011-.018.011-.019.011-.019.011-.019.011-.017.01-.017.01-.017.01-.019.011-.019.011-.019.011-.018.011-.018.011-.018.01-.018.01-.017.01-.018.011-.018.01-.018.01-.018.011-.018.01-.018.01-.017.01-.018.01-.997-2.156zm.236.022c.158-.237.396-.555.774-.771s.747-.245 1.012-.25l-.087 2.463-.073.003a.48.48 0 0 0 .135-.054.52.52 0 0 0 .119-.091c.009-.01-.004.002-.045.064l-1.834-1.364zm.786.941c-.84-1.326-1.386-3.04-1.949-4.714l2.156-.946c.601 1.787 1.053 3.17 1.705 4.2l-1.912 1.46zm-1.591-4.19a.47.47 0 0 0 .197.089.49.49 0 0 0 .203.001c.032-.007.037-.013-.001.005l-.176.097-.987-2.162c.128-.073.45-.268.813-.35a1.59 1.59 0 0 1 1.391.326l-1.44 1.994zm.537-.064c-.354.399-.715.6-.89.701l-.077.045c-.012.007.006-.003.036-.028a.99.99 0 0 0 .305-.478L4.73 10.99a1.66 1.66 0 0 1 .542-.813c.155-.128.327-.222.382-.253.154-.088.206-.123.263-.188l1.615 1.65zm-2.745.512a.72.72 0 0 0 .138.207c.012.012.018.015-.033-.026-.032-.026-.12-.097-.205-.182s-.216-.236-.314-.45l2.063-1.18a.72.72 0 0 0-.138-.207c-.012-.012-.018-.015.033.026l.205.182a1.56 1.56 0 0 1 .314.45l-2.063 1.18zm-.414-.451c.059.13.13.2.142.212.003.003-.004-.004-.079-.065-.135-.109-.349-.284-.611-.569l1.669-1.778c.152.166.268.261.382.353l.232.202c.095.094.228.244.328.464l-2.063 1.18zm-.236-.186c-1.013-.501-2.656-1.076-3.448-1.222l.503-2.428c1.026.19 2.853.84 3.99 1.402L4.137 11.26zM1.972 8.234c-.05-.109-.083-.099.056.013.115.094.285.208.512.34.456.266 1.011.533 1.57.809l-1.045 2.248-1.696-.877a6.21 6.21 0 0 1-.781-.526c-.213-.173-.505-.445-.679-.827l2.063-1.18zm1.481 3.515a7.87 7.87 0 0 0-1.53.045c-.528.07-.92.191-1.144.32l-.987-2.162c.6-.343 1.322-.515 1.97-.602a10 10 0 0 1 1.958-.059l-.266 2.458zM.839 9.924c-.011-.006.028.015.149.043.112.026.259.05.44.069.361.039.804.053 1.265.046.968-.016 1.822-.125 2.111-.217l.541 2.359c-.619.198-1.746.305-2.739.321a12.76 12.76 0 0 1-1.524-.057c-.431-.046-.952-.134-1.35-.348L.839 9.924zm4.235 1.121l-.493-1.082.037-.02.048-.024.127-.053c.094-.034.24-.074.417-.077.184-.003.416.035.645.176s.396.354.498.577l-2.063 1.18c.061.133.172.286.351.397a.89.89 0 0 0 .768.081l.087-.036.037-.018.026-.014c.008-.005.009-.005-.485-1.086zM5.73 9.96c.105.037.31.107.497.208.178.095.511.305.706.732l-2.063 1.18c.058.128.132.208.178.25a.48.48 0 0 0 .054.043l.018.012-.056-.024-.149-.054.815-2.345zm.665 2.61c-.063.036-.275.165-.536.233a1.58 1.58 0 0 1-.943-.041l.815-2.345c-.029-.01-.075-.022-.135-.024s-.119.006-.167.018-.074.026-.077.027l.056-.032.987 2.162zm-1.071-.98l.494 1.081-.017.01-.018.01-.018.01-.018.01-.018.01-.018.01-.018.01-.018.01-.018.01-.018.01-.018.01-.017.01-.018.01-.017.01-.018.01-.019.011-.018.01-.018.011-.019.011-.018.01-.018.011-.019.011-.017.01-.018.01-.018.01-.019.011-.019.011-.995-2.158.019-.011.019-.011.018-.011.018-.01.018-.01.019-.011.018-.011.018-.01.018-.01.019-.011.018-.01.018-.01.018-.011.018-.01.018-.011.018-.01.018-.01.018-.011.017-.01.017-.01.018-.01.018-.01.018-.01.018-.01.018-.01.017-.01.018-.01c.007-.004.007-.004.501 1.077zm-.224 1.462c-.648.207-1.555.891-2.086 1.406l-1.48-1.791c.622-.603 1.857-1.602 3.025-1.974l.541 2.359zm-2.418-.661c-.131-.046-.197-.015-.128-.031.057-.013.16-.047.306-.12.292-.146.639-.386.946-.657l1.391 1.873a7.15 7.15 0 0 1-1.465 1.008 3.66 3.66 0 0 1-.831.308c-.279.062-.654.098-1.034-.036l.815-2.345zm2.736.81a25.74 25.74 0 0 0-1.318 2.268l-1.993-1.093c.348-.684.949-1.747 1.477-2.54l1.834 1.364zm-2.53.526c-.144.038-.122.085.079-.124.161-.167.349-.408.536-.689s.348-.564.464-.806l.139-.323 2.271.161c-.047.424-.232.868-.389 1.197-.177.37-.405.765-.651 1.136s-.529.741-.827 1.051c-.257.267-.677.654-1.193.789l-.43-2.391zm1.861-2.943l.018-.01.018-.01.017-.01.017-.01.018-.01.018-.01.018-.01.018-.01.018-.01.017-.01.017-.01.018-.01.018-.01.017-.01.018-.01.018-.01.018-.01.018-.01.999 2.156-.018.01-.018.01-.017.01-.017.01-.018.01-.018.01-.018.01-.018.01-.018.01-.017.01-.017.01-.018.01-.018.01-.017.01-.018.01-.018.01-.018.01-.018.01-.999-2.155z" mask="url(#A)"/></g></svg>